<mxfile host="app.diagrams.net" modified="2023-10-10T08:39:22.458Z" agent="Mozilla/5.0 (Windows NT 10.0; Win64; x64) AppleWebKit/537.36 (KHTML, like Gecko) Chrome/117.0.0.0 Safari/537.36" etag="-SBeNwJMAZoTeXLCgXNO" version="22.0.0" type="github">
  <diagram name="Page-1" id="x0DHri8qyFr8XKSQ3_TH">
    <mxGraphModel dx="1434" dy="870" grid="1" gridSize="10" guides="1" tooltips="1" connect="1" arrows="1" fold="1" page="1" pageScale="1" pageWidth="850" pageHeight="1100" math="0" shadow="0">
      <root>
        <mxCell id="0" />
        <mxCell id="1" parent="0" />
        <mxCell id="eLDokrUv9MNCYmeDsPff-1" value="" style="rounded=0;whiteSpace=wrap;html=1;" vertex="1" parent="1">
          <mxGeometry x="160" y="80" width="120" height="40" as="geometry" />
        </mxCell>
        <mxCell id="eLDokrUv9MNCYmeDsPff-2" value="" style="rounded=0;whiteSpace=wrap;html=1;" vertex="1" parent="1">
          <mxGeometry x="320" y="80" width="120" height="40" as="geometry" />
        </mxCell>
        <mxCell id="eLDokrUv9MNCYmeDsPff-4" value="" style="rounded=0;whiteSpace=wrap;html=1;" vertex="1" parent="1">
          <mxGeometry x="480" y="80" width="120" height="40" as="geometry" />
        </mxCell>
        <mxCell id="eLDokrUv9MNCYmeDsPff-5" value="" style="rounded=0;whiteSpace=wrap;html=1;" vertex="1" parent="1">
          <mxGeometry x="80" y="200" width="120" height="40" as="geometry" />
        </mxCell>
        <mxCell id="eLDokrUv9MNCYmeDsPff-6" value="" style="rounded=0;whiteSpace=wrap;html=1;" vertex="1" parent="1">
          <mxGeometry x="240" y="200" width="120" height="40" as="geometry" />
        </mxCell>
        <mxCell id="eLDokrUv9MNCYmeDsPff-7" value="" style="rounded=0;whiteSpace=wrap;html=1;" vertex="1" parent="1">
          <mxGeometry x="400" y="200" width="120" height="40" as="geometry" />
        </mxCell>
        <mxCell id="eLDokrUv9MNCYmeDsPff-8" value="" style="rounded=0;whiteSpace=wrap;html=1;" vertex="1" parent="1">
          <mxGeometry x="560" y="200" width="120" height="40" as="geometry" />
        </mxCell>
        <mxCell id="eLDokrUv9MNCYmeDsPff-9" value="" style="endArrow=none;html=1;rounded=0;entryX=0;entryY=1;entryDx=0;entryDy=0;exitX=0.25;exitY=0;exitDx=0;exitDy=0;strokeColor=#D5E8D4;strokeWidth=2;" edge="1" parent="1" source="eLDokrUv9MNCYmeDsPff-5" target="eLDokrUv9MNCYmeDsPff-1">
          <mxGeometry width="50" height="50" relative="1" as="geometry">
            <mxPoint x="90" y="200" as="sourcePoint" />
            <mxPoint x="140" y="150" as="targetPoint" />
          </mxGeometry>
        </mxCell>
        <mxCell id="eLDokrUv9MNCYmeDsPff-10" value="" style="endArrow=none;html=1;rounded=0;entryX=0.25;entryY=1;entryDx=0;entryDy=0;exitX=0.5;exitY=0;exitDx=0;exitDy=0;strokeWidth=2;strokeColor=#DAE8FC;" edge="1" parent="1" source="eLDokrUv9MNCYmeDsPff-5" target="eLDokrUv9MNCYmeDsPff-2">
          <mxGeometry width="50" height="50" relative="1" as="geometry">
            <mxPoint x="120" y="210" as="sourcePoint" />
            <mxPoint x="200" y="130" as="targetPoint" />
          </mxGeometry>
        </mxCell>
        <mxCell id="eLDokrUv9MNCYmeDsPff-11" value="" style="endArrow=none;html=1;rounded=0;entryX=0.25;entryY=1;entryDx=0;entryDy=0;exitX=0.75;exitY=0;exitDx=0;exitDy=0;strokeWidth=2;strokeColor=#FFE6CC;" edge="1" parent="1" source="eLDokrUv9MNCYmeDsPff-5" target="eLDokrUv9MNCYmeDsPff-4">
          <mxGeometry width="50" height="50" relative="1" as="geometry">
            <mxPoint x="150" y="210" as="sourcePoint" />
            <mxPoint x="360" y="130" as="targetPoint" />
          </mxGeometry>
        </mxCell>
        <mxCell id="eLDokrUv9MNCYmeDsPff-12" value="" style="endArrow=none;html=1;rounded=0;entryX=0.25;entryY=0;entryDx=0;entryDy=0;exitX=0.25;exitY=1;exitDx=0;exitDy=0;strokeWidth=2;strokeColor=#FFF2CC;" edge="1" parent="1" source="eLDokrUv9MNCYmeDsPff-1" target="eLDokrUv9MNCYmeDsPff-6">
          <mxGeometry width="50" height="50" relative="1" as="geometry">
            <mxPoint x="180" y="210" as="sourcePoint" />
            <mxPoint x="520" y="130" as="targetPoint" />
          </mxGeometry>
        </mxCell>
        <mxCell id="eLDokrUv9MNCYmeDsPff-13" value="" style="endArrow=none;html=1;rounded=0;exitX=0.5;exitY=1;exitDx=0;exitDy=0;strokeWidth=2;strokeColor=#008A00;" edge="1" parent="1" source="eLDokrUv9MNCYmeDsPff-1" target="eLDokrUv9MNCYmeDsPff-7">
          <mxGeometry width="50" height="50" relative="1" as="geometry">
            <mxPoint x="230" y="130" as="sourcePoint" />
            <mxPoint x="280" y="210" as="targetPoint" />
          </mxGeometry>
        </mxCell>
        <mxCell id="eLDokrUv9MNCYmeDsPff-14" value="" style="endArrow=none;html=1;rounded=0;exitX=0.75;exitY=1;exitDx=0;exitDy=0;entryX=0.25;entryY=0;entryDx=0;entryDy=0;strokeWidth=2;strokeColor=#E51400;" edge="1" parent="1" source="eLDokrUv9MNCYmeDsPff-1" target="eLDokrUv9MNCYmeDsPff-8">
          <mxGeometry width="50" height="50" relative="1" as="geometry">
            <mxPoint x="230" y="130" as="sourcePoint" />
            <mxPoint x="422" y="210" as="targetPoint" />
          </mxGeometry>
        </mxCell>
        <mxCell id="eLDokrUv9MNCYmeDsPff-15" value="" style="endArrow=none;html=1;rounded=0;exitX=0.5;exitY=0;exitDx=0;exitDy=0;entryX=0.5;entryY=1;entryDx=0;entryDy=0;strokeWidth=2;" edge="1" parent="1" source="eLDokrUv9MNCYmeDsPff-6" target="eLDokrUv9MNCYmeDsPff-2">
          <mxGeometry width="50" height="50" relative="1" as="geometry">
            <mxPoint x="260" y="130" as="sourcePoint" />
            <mxPoint x="600" y="210" as="targetPoint" />
          </mxGeometry>
        </mxCell>
        <mxCell id="eLDokrUv9MNCYmeDsPff-16" value="" style="endArrow=none;html=1;rounded=0;exitX=0.25;exitY=0;exitDx=0;exitDy=0;entryX=0.808;entryY=1.025;entryDx=0;entryDy=0;entryPerimeter=0;strokeWidth=2;strokeColor=#1BA1E2;" edge="1" parent="1" source="eLDokrUv9MNCYmeDsPff-7" target="eLDokrUv9MNCYmeDsPff-2">
          <mxGeometry width="50" height="50" relative="1" as="geometry">
            <mxPoint x="310" y="210" as="sourcePoint" />
            <mxPoint x="390" y="130" as="targetPoint" />
          </mxGeometry>
        </mxCell>
        <mxCell id="eLDokrUv9MNCYmeDsPff-17" value="" style="endArrow=none;html=1;rounded=0;exitX=0.5;exitY=0;exitDx=0;exitDy=0;entryX=1;entryY=1;entryDx=0;entryDy=0;strokeWidth=2;" edge="1" parent="1" source="eLDokrUv9MNCYmeDsPff-8" target="eLDokrUv9MNCYmeDsPff-2">
          <mxGeometry width="50" height="50" relative="1" as="geometry">
            <mxPoint x="440" y="210" as="sourcePoint" />
            <mxPoint x="427" y="131" as="targetPoint" />
          </mxGeometry>
        </mxCell>
        <mxCell id="eLDokrUv9MNCYmeDsPff-18" value="" style="endArrow=none;html=1;rounded=0;exitX=0.75;exitY=0;exitDx=0;exitDy=0;entryX=0.433;entryY=1;entryDx=0;entryDy=0;entryPerimeter=0;strokeWidth=2;" edge="1" parent="1" source="eLDokrUv9MNCYmeDsPff-6" target="eLDokrUv9MNCYmeDsPff-4">
          <mxGeometry width="50" height="50" relative="1" as="geometry">
            <mxPoint x="450" y="220" as="sourcePoint" />
            <mxPoint x="437" y="141" as="targetPoint" />
          </mxGeometry>
        </mxCell>
        <mxCell id="eLDokrUv9MNCYmeDsPff-19" value="" style="endArrow=none;html=1;rounded=0;exitX=0.5;exitY=0;exitDx=0;exitDy=0;entryX=0.75;entryY=1;entryDx=0;entryDy=0;strokeWidth=2;strokeColor=#A20025;" edge="1" parent="1" source="eLDokrUv9MNCYmeDsPff-7" target="eLDokrUv9MNCYmeDsPff-4">
          <mxGeometry width="50" height="50" relative="1" as="geometry">
            <mxPoint x="340" y="210" as="sourcePoint" />
            <mxPoint x="542" y="130" as="targetPoint" />
          </mxGeometry>
        </mxCell>
        <mxCell id="eLDokrUv9MNCYmeDsPff-20" value="" style="endArrow=none;html=1;rounded=0;exitX=0.75;exitY=0;exitDx=0;exitDy=0;entryX=1;entryY=1;entryDx=0;entryDy=0;strokeWidth=2;" edge="1" parent="1" source="eLDokrUv9MNCYmeDsPff-8" target="eLDokrUv9MNCYmeDsPff-4">
          <mxGeometry width="50" height="50" relative="1" as="geometry">
            <mxPoint x="350" y="220" as="sourcePoint" />
            <mxPoint x="552" y="140" as="targetPoint" />
          </mxGeometry>
        </mxCell>
        <mxCell id="eLDokrUv9MNCYmeDsPff-24" value="" style="endArrow=none;html=1;rounded=0;entryX=0.25;entryY=1;entryDx=0;entryDy=0;exitX=0;exitY=0;exitDx=0;exitDy=0;strokeColor=#D5E8D4;strokeWidth=2;" edge="1" parent="1" target="eLDokrUv9MNCYmeDsPff-5">
          <mxGeometry width="50" height="50" relative="1" as="geometry">
            <mxPoint x="84.10050506340394" y="277.3223304703638" as="sourcePoint" />
            <mxPoint x="170" y="130" as="targetPoint" />
          </mxGeometry>
        </mxCell>
        <mxCell id="eLDokrUv9MNCYmeDsPff-25" value="" style="endArrow=none;html=1;rounded=0;entryX=0.5;entryY=1;entryDx=0;entryDy=0;exitX=0.5;exitY=0;exitDx=0;exitDy=0;strokeWidth=2;strokeColor=#DAE8FC;" edge="1" parent="1" source="eLDokrUv9MNCYmeDsPff-46" target="eLDokrUv9MNCYmeDsPff-5">
          <mxGeometry width="50" height="50" relative="1" as="geometry">
            <mxPoint x="140" y="270" as="sourcePoint" />
            <mxPoint x="120" y="250" as="targetPoint" />
          </mxGeometry>
        </mxCell>
        <mxCell id="eLDokrUv9MNCYmeDsPff-26" value="" style="endArrow=none;html=1;rounded=0;entryX=0.75;entryY=1;entryDx=0;entryDy=0;strokeWidth=2;strokeColor=#FFE6CC;" edge="1" parent="1" target="eLDokrUv9MNCYmeDsPff-5">
          <mxGeometry width="50" height="50" relative="1" as="geometry">
            <mxPoint x="179.5461424047437" y="272.81486451630644" as="sourcePoint" />
            <mxPoint x="150" y="250" as="targetPoint" />
          </mxGeometry>
        </mxCell>
        <mxCell id="eLDokrUv9MNCYmeDsPff-45" value="" style="rounded=0;whiteSpace=wrap;html=1;fillColor=#d5e8d4;strokeColor=#82b366;" vertex="1" parent="1">
          <mxGeometry x="80" y="275" width="20" height="40" as="geometry" />
        </mxCell>
        <mxCell id="eLDokrUv9MNCYmeDsPff-46" value="" style="rounded=0;whiteSpace=wrap;html=1;fillColor=#dae8fc;strokeColor=#6c8ebf;" vertex="1" parent="1">
          <mxGeometry x="130" y="275" width="20" height="40" as="geometry" />
        </mxCell>
        <mxCell id="eLDokrUv9MNCYmeDsPff-47" value="" style="rounded=0;whiteSpace=wrap;html=1;fillColor=#ffe6cc;strokeColor=#d79b00;" vertex="1" parent="1">
          <mxGeometry x="170" y="275" width="20" height="40" as="geometry" />
        </mxCell>
        <mxCell id="eLDokrUv9MNCYmeDsPff-49" value="" style="endArrow=none;html=1;rounded=0;entryX=0.25;entryY=1;entryDx=0;entryDy=0;exitX=0;exitY=0;exitDx=0;exitDy=0;strokeWidth=2;strokeColor=#FFF2CC;" edge="1" parent="1">
          <mxGeometry width="50" height="50" relative="1" as="geometry">
            <mxPoint x="244.10050506340394" y="277.3223304703638" as="sourcePoint" />
            <mxPoint x="270" y="240" as="targetPoint" />
          </mxGeometry>
        </mxCell>
        <mxCell id="eLDokrUv9MNCYmeDsPff-50" value="" style="endArrow=none;html=1;rounded=0;entryX=0.5;entryY=1;entryDx=0;entryDy=0;exitX=0.5;exitY=0;exitDx=0;exitDy=0;strokeWidth=2;" edge="1" parent="1" source="eLDokrUv9MNCYmeDsPff-53">
          <mxGeometry width="50" height="50" relative="1" as="geometry">
            <mxPoint x="300" y="270" as="sourcePoint" />
            <mxPoint x="300" y="240" as="targetPoint" />
          </mxGeometry>
        </mxCell>
        <mxCell id="eLDokrUv9MNCYmeDsPff-51" value="" style="endArrow=none;html=1;rounded=0;entryX=0.75;entryY=1;entryDx=0;entryDy=0;strokeWidth=2;" edge="1" parent="1">
          <mxGeometry width="50" height="50" relative="1" as="geometry">
            <mxPoint x="339.5461424047437" y="272.81486451630644" as="sourcePoint" />
            <mxPoint x="330" y="240" as="targetPoint" />
          </mxGeometry>
        </mxCell>
        <mxCell id="eLDokrUv9MNCYmeDsPff-52" value="" style="rounded=0;whiteSpace=wrap;html=1;fillColor=#fff2cc;strokeColor=#d6b656;" vertex="1" parent="1">
          <mxGeometry x="240" y="275" width="20" height="40" as="geometry" />
        </mxCell>
        <mxCell id="eLDokrUv9MNCYmeDsPff-53" value="" style="rounded=0;whiteSpace=wrap;html=1;fillColor=#f8cecc;strokeColor=#b85450;" vertex="1" parent="1">
          <mxGeometry x="290" y="275" width="20" height="40" as="geometry" />
        </mxCell>
        <mxCell id="eLDokrUv9MNCYmeDsPff-54" value="" style="rounded=0;whiteSpace=wrap;html=1;fillColor=#e1d5e7;strokeColor=#9673a6;" vertex="1" parent="1">
          <mxGeometry x="330" y="275" width="20" height="40" as="geometry" />
        </mxCell>
        <mxCell id="eLDokrUv9MNCYmeDsPff-55" value="" style="endArrow=none;html=1;rounded=0;entryX=0.25;entryY=1;entryDx=0;entryDy=0;exitX=0;exitY=0;exitDx=0;exitDy=0;strokeWidth=2;strokeColor=#1BA1E2;" edge="1" parent="1">
          <mxGeometry width="50" height="50" relative="1" as="geometry">
            <mxPoint x="404.10050506340394" y="277.3223304703638" as="sourcePoint" />
            <mxPoint x="430" y="240" as="targetPoint" />
          </mxGeometry>
        </mxCell>
        <mxCell id="eLDokrUv9MNCYmeDsPff-56" value="" style="endArrow=none;html=1;rounded=0;entryX=0.5;entryY=1;entryDx=0;entryDy=0;exitX=0.5;exitY=0;exitDx=0;exitDy=0;strokeWidth=2;strokeColor=#A20025;" edge="1" parent="1" source="eLDokrUv9MNCYmeDsPff-59">
          <mxGeometry width="50" height="50" relative="1" as="geometry">
            <mxPoint x="460" y="270" as="sourcePoint" />
            <mxPoint x="460" y="240" as="targetPoint" />
          </mxGeometry>
        </mxCell>
        <mxCell id="eLDokrUv9MNCYmeDsPff-57" value="" style="endArrow=none;html=1;rounded=0;entryX=0.75;entryY=1;entryDx=0;entryDy=0;strokeWidth=2;strokeColor=#008A00;" edge="1" parent="1">
          <mxGeometry width="50" height="50" relative="1" as="geometry">
            <mxPoint x="499.5461424047437" y="272.81486451630644" as="sourcePoint" />
            <mxPoint x="490" y="240" as="targetPoint" />
          </mxGeometry>
        </mxCell>
        <mxCell id="eLDokrUv9MNCYmeDsPff-58" value="" style="rounded=0;whiteSpace=wrap;html=1;fillColor=#1ba1e2;strokeColor=#006EAF;fontColor=#ffffff;" vertex="1" parent="1">
          <mxGeometry x="400" y="275" width="20" height="40" as="geometry" />
        </mxCell>
        <mxCell id="eLDokrUv9MNCYmeDsPff-59" value="" style="rounded=0;whiteSpace=wrap;html=1;fillColor=#a20025;strokeColor=#6F0000;fontColor=#ffffff;" vertex="1" parent="1">
          <mxGeometry x="450" y="275" width="20" height="40" as="geometry" />
        </mxCell>
        <mxCell id="eLDokrUv9MNCYmeDsPff-60" value="" style="rounded=0;whiteSpace=wrap;html=1;fillColor=#008a00;strokeColor=#005700;fontColor=#ffffff;" vertex="1" parent="1">
          <mxGeometry x="490" y="275" width="20" height="40" as="geometry" />
        </mxCell>
        <mxCell id="eLDokrUv9MNCYmeDsPff-61" value="" style="endArrow=none;html=1;rounded=0;entryX=0.25;entryY=1;entryDx=0;entryDy=0;exitX=0;exitY=0;exitDx=0;exitDy=0;strokeWidth=2;strokeColor=#E51400;" edge="1" parent="1">
          <mxGeometry width="50" height="50" relative="1" as="geometry">
            <mxPoint x="569.100505063404" y="277.3223304703638" as="sourcePoint" />
            <mxPoint x="595" y="240" as="targetPoint" />
          </mxGeometry>
        </mxCell>
        <mxCell id="eLDokrUv9MNCYmeDsPff-62" value="" style="endArrow=none;html=1;rounded=0;entryX=0.5;entryY=1;entryDx=0;entryDy=0;exitX=0.5;exitY=0;exitDx=0;exitDy=0;strokeWidth=2;" edge="1" parent="1" source="eLDokrUv9MNCYmeDsPff-65">
          <mxGeometry width="50" height="50" relative="1" as="geometry">
            <mxPoint x="625" y="270" as="sourcePoint" />
            <mxPoint x="625" y="240" as="targetPoint" />
          </mxGeometry>
        </mxCell>
        <mxCell id="eLDokrUv9MNCYmeDsPff-63" value="" style="endArrow=none;html=1;rounded=0;entryX=0.75;entryY=1;entryDx=0;entryDy=0;strokeWidth=2;" edge="1" parent="1">
          <mxGeometry width="50" height="50" relative="1" as="geometry">
            <mxPoint x="664.5461424047437" y="272.81486451630644" as="sourcePoint" />
            <mxPoint x="655" y="240" as="targetPoint" />
          </mxGeometry>
        </mxCell>
        <mxCell id="eLDokrUv9MNCYmeDsPff-64" value="" style="rounded=0;whiteSpace=wrap;html=1;fillColor=#e51400;strokeColor=#B20000;fontColor=#ffffff;" vertex="1" parent="1">
          <mxGeometry x="565" y="275" width="20" height="40" as="geometry" />
        </mxCell>
        <mxCell id="eLDokrUv9MNCYmeDsPff-65" value="" style="rounded=0;whiteSpace=wrap;html=1;fillColor=#647687;strokeColor=#314354;fontColor=#ffffff;" vertex="1" parent="1">
          <mxGeometry x="615" y="275" width="20" height="40" as="geometry" />
        </mxCell>
        <mxCell id="eLDokrUv9MNCYmeDsPff-66" value="" style="rounded=0;whiteSpace=wrap;html=1;fillColor=#f0a30a;strokeColor=#BD7000;fontColor=#000000;" vertex="1" parent="1">
          <mxGeometry x="655" y="275" width="20" height="40" as="geometry" />
        </mxCell>
        <mxCell id="eLDokrUv9MNCYmeDsPff-70" value="T1:&amp;nbsp;" style="text;html=1;align=center;verticalAlign=middle;resizable=0;points=[];autosize=1;strokeColor=none;fillColor=none;" vertex="1" parent="1">
          <mxGeometry x="30" y="320" width="40" height="30" as="geometry" />
        </mxCell>
        <mxCell id="eLDokrUv9MNCYmeDsPff-71" value="" style="html=1;verticalLabelPosition=bottom;labelBackgroundColor=#ffffff;verticalAlign=top;shadow=0;dashed=0;strokeWidth=2;shape=mxgraph.ios7.misc.right;strokeColor=#0080f0;rotation=-90;" vertex="1" parent="1">
          <mxGeometry x="87" y="329" width="6" height="12" as="geometry" />
        </mxCell>
        <mxCell id="eLDokrUv9MNCYmeDsPff-73" value="" style="html=1;verticalLabelPosition=bottom;labelBackgroundColor=#ffffff;verticalAlign=top;shadow=0;dashed=0;strokeWidth=2;shape=mxgraph.ios7.misc.right;strokeColor=#E51400;rotation=-90;" vertex="1" parent="1">
          <mxGeometry x="247" y="329" width="6" height="12" as="geometry" />
        </mxCell>
        <mxCell id="eLDokrUv9MNCYmeDsPff-74" value="" style="html=1;verticalLabelPosition=bottom;labelBackgroundColor=#ffffff;verticalAlign=top;shadow=0;dashed=0;strokeWidth=2;shape=mxgraph.ios7.misc.right;strokeColor=#E51400;rotation=-90;" vertex="1" parent="1">
          <mxGeometry x="137" y="329" width="6" height="12" as="geometry" />
        </mxCell>
        <mxCell id="eLDokrUv9MNCYmeDsPff-75" value="" style="html=1;verticalLabelPosition=bottom;labelBackgroundColor=#ffffff;verticalAlign=top;shadow=0;dashed=0;strokeWidth=2;shape=mxgraph.ios7.misc.right;strokeColor=#83FF63;rotation=-90;" vertex="1" parent="1">
          <mxGeometry x="297" y="329" width="6" height="12" as="geometry" />
        </mxCell>
        <mxCell id="eLDokrUv9MNCYmeDsPff-76" value="" style="html=1;verticalLabelPosition=bottom;labelBackgroundColor=#ffffff;verticalAlign=top;shadow=0;dashed=0;strokeWidth=2;shape=mxgraph.ios7.misc.right;strokeColor=#83FF63;rotation=-90;" vertex="1" parent="1">
          <mxGeometry x="407" y="329" width="6" height="12" as="geometry" />
        </mxCell>
        <mxCell id="eLDokrUv9MNCYmeDsPff-77" value="" style="html=1;verticalLabelPosition=bottom;labelBackgroundColor=#ffffff;verticalAlign=top;shadow=0;dashed=0;strokeWidth=2;shape=mxgraph.ios7.misc.right;strokeColor=#0080f0;rotation=-90;" vertex="1" parent="1">
          <mxGeometry x="497" y="329" width="6" height="12" as="geometry" />
        </mxCell>
        <mxCell id="eLDokrUv9MNCYmeDsPff-79" value="开始决定好通信对，中间不修改的情况，可以完全均摊开无冲突。&lt;br&gt;若有动态要使用到的GPU&lt;br&gt;从源端看，一定向上能走不同的路径。但向下的时候可能发生冲突，动态通信对产生后，会产生冲突。&lt;br&gt;&lt;br&gt;&lt;br&gt;offline知道未来谁和谁要通信&lt;br&gt;n^2个任务&lt;br&gt;来很多个占12个GPU的任务，他们的通信模式不一样。&lt;br&gt;&lt;br&gt;tree通信模式，其实没法保证网络绝对没冲突。&lt;br&gt;&lt;br&gt;NCCL处配n个卡，routing plan来保证，网络资源用得很均匀，哪种routing更合理？&lt;br&gt;&lt;br&gt;flowlet问题在什么情况下问题在哪？bound在哪？&amp;nbsp; packet spraying 或 ECMP 的bound在哪？&lt;br&gt;&lt;br&gt;说明上述问题的case，从application层就可以考虑。&lt;br&gt;&lt;br&gt;证明确实有问题，证明的东西，设计。&lt;br&gt;&lt;br&gt;一套分析方法。" style="text;html=1;align=left;verticalAlign=middle;resizable=0;points=[];autosize=1;strokeColor=none;fillColor=none;" vertex="1" parent="1">
          <mxGeometry x="80" y="360" width="560" height="300" as="geometry" />
        </mxCell>
        <mxCell id="eLDokrUv9MNCYmeDsPff-81" value="冲突" style="text;html=1;align=center;verticalAlign=middle;resizable=0;points=[];autosize=1;strokeColor=none;fillColor=none;" vertex="1" parent="1">
          <mxGeometry x="305" y="18" width="50" height="30" as="geometry" />
        </mxCell>
        <mxCell id="eLDokrUv9MNCYmeDsPff-82" value="" style="endArrow=classic;html=1;rounded=0;" edge="1" parent="1">
          <mxGeometry width="50" height="50" relative="1" as="geometry">
            <mxPoint x="325.9996551724137" y="40" as="sourcePoint" />
            <mxPoint x="360" y="140" as="targetPoint" />
          </mxGeometry>
        </mxCell>
        <mxCell id="eLDokrUv9MNCYmeDsPff-83" value="" style="html=1;verticalLabelPosition=bottom;labelBackgroundColor=#ffffff;verticalAlign=top;shadow=0;dashed=0;strokeWidth=2;shape=mxgraph.ios7.misc.right;strokeColor=#FF8000;rotation=-90;" vertex="1" parent="1">
          <mxGeometry x="457" y="329" width="6" height="12" as="geometry" />
        </mxCell>
        <mxCell id="eLDokrUv9MNCYmeDsPff-84" value="" style="html=1;verticalLabelPosition=bottom;labelBackgroundColor=#ffffff;verticalAlign=top;shadow=0;dashed=0;strokeWidth=2;shape=mxgraph.ios7.misc.right;strokeColor=#FF8000;rotation=-90;" vertex="1" parent="1">
          <mxGeometry x="572" y="329" width="6" height="12" as="geometry" />
        </mxCell>
      </root>
    </mxGraphModel>
  </diagram>
</mxfile>
